<?xml version="1.0" standalone="no"?>
<!DOCTYPE svg PUBLIC "-//W3C//DTD SVG 20010904//EN"
 "http://www.w3.org/TR/2001/REC-SVG-20010904/DTD/svg10.dtd">
<svg version="1.0" xmlns="http://www.w3.org/2000/svg"
 width="225.000000pt" height="225.000000pt" viewBox="0 0 225.000000 225.000000"
 preserveAspectRatio="xMidYMid meet">
<metadata>
Created by potrace 1.16, written by Peter Selinger 2001-2019
</metadata>
<g transform="translate(0.000000,225.000000) scale(0.100000,-0.100000)"
fill="#000000" stroke="none">
<path d="M1209 2235 c-11 -10 -185 -34 -304 -41 -114 -6 -130 -9 -228 -43 -93
-32 -318 -179 -289 -189 6 -2 34 2 64 8 29 7 78 14 108 17 79 6 90 11 66 29
-11 8 -31 14 -45 14 -19 0 -22 3 -14 11 7 7 62 14 127 17 l115 5 10 -27 c10
-23 16 -26 62 -26 42 0 55 5 78 28 27 27 27 27 61 10 19 -10 50 -18 69 -18
l34 0 -23 25 -23 25 96 0 c122 0 183 -13 277 -58 65 -32 71 -37 48 -40 -17 -2
-28 -9 -28 -19 0 -11 -7 -14 -22 -10 -13 3 -49 11 -81 17 -48 10 -56 14 -46
26 9 11 4 17 -26 30 -42 17 -88 13 -123 -12 -22 -15 -22 -17 -6 -35 22 -25 -1
-26 -28 -2 -18 16 -21 15 -62 -4 -24 -12 -53 -35 -65 -51 l-20 -29 52 -6 c32
-4 82 -22 129 -46 l77 -40 21 26 c15 19 20 38 18 67 l-3 41 50 0 c28 -1 64 -8
80 -16 113 -59 138 -75 170 -108 68 -67 67 -71 -23 -71 -62 0 -83 -4 -93 -16
-12 -15 -11 -16 8 -10 24 8 71 -12 93 -39 19 -23 -13 -44 -69 -45 -49 0 -120
-28 -121 -47 0 -7 -5 -13 -11 -13 -5 0 -16 -15 -24 -34 -8 -19 -31 -47 -50
-62 -51 -39 -57 -55 -43 -109 11 -39 10 -47 -4 -61 -15 -15 -18 -14 -36 23
-34 66 -104 81 -207 42 -60 -22 -77 -43 -77 -96 0 -73 85 -110 145 -63 25 20
26 20 35 3 5 -10 8 -32 5 -49 -5 -35 9 -51 52 -56 26 -3 30 -8 37 -47 4 -25
12 -49 17 -54 13 -13 104 -27 111 -17 13 19 54 30 102 26 171 -14 221 -28 233
-66 5 -15 15 -20 41 -20 50 0 87 -39 82 -86 l-4 -34 51 0 c101 0 151 -66 126
-165 -17 -69 -67 -161 -97 -182 -15 -10 -76 -65 -136 -121 -90 -85 -124 -111
-191 -142 -45 -21 -92 -48 -104 -61 -21 -23 -43 -69 -43 -91 0 -27 179 36 295
104 280 164 474 433 540 746 l14 67 -27 34 c-64 80 -71 93 -77 160 -3 36 -12
77 -20 91 -7 14 -19 64 -25 110 -12 83 -11 87 14 140 14 30 31 62 38 72 10 13
4 30 -37 100 -76 130 -122 186 -159 193 -17 4 -36 5 -41 4 -6 -1 -19 2 -29 6
-13 6 -23 3 -31 -8 -15 -21 -39 -22 -55 -2 -7 8 -21 15 -32 15 -23 0 -98 70
-98 92 0 16 -44 60 -78 78 -13 6 -35 9 -48 6 -14 -4 -38 1 -61 14 -21 11 -45
20 -54 20 -9 0 -22 7 -29 14 -12 15 16 26 124 52 l29 7 -25 13 c-61 32 -293
77 -309 59z m-4 -57 c21 -9 31 -9 47 1 16 10 36 10 104 0 90 -14 91 -23 4 -33
-30 -3 -73 -13 -95 -21 -43 -15 -144 -18 -185 -5 -22 7 -22 8 -4 9 30 1 36 12
16 27 -15 12 -15 15 -2 24 21 13 83 13 115 -2z"/>
<path d="M190 1747 c-81 -123 -144 -279 -171 -427 -17 -88 -16 -298 0 -390 27
-148 87 -299 172 -430 55 -84 225 -254 309 -309 131 -85 283 -146 430 -172 86
-15 268 -18 351 -6 l57 8 -16 32 c-18 36 -13 57 51 242 19 55 38 119 42 141 6
41 5 43 -54 102 -112 112 -157 248 -104 316 44 56 24 96 -59 116 -34 9 -55 22
-73 46 -18 23 -37 35 -63 40 -49 9 -72 21 -72 39 0 11 -12 15 -47 15 -102 0
-179 45 -201 117 -7 24 -32 59 -68 93 l-56 55 22 -43 c12 -24 20 -46 17 -48
-2 -2 -36 29 -75 70 -100 103 -127 163 -127 280 l0 89 -100 34 c-54 18 -106
35 -115 38 -10 3 -26 -12 -50 -48z"/>
</g>
</svg>
